<?xml version="1.0" encoding="UTF-8" standalone="no"?>
<!DOCTYPE svg PUBLIC "-//W3C//DTD SVG 1.1//EN" "http://www.w3.org/Graphics/SVG/1.1/DTD/svg11.dtd">
<svg xmlns="http://www.w3.org/2000/svg" xmlns:xl="http://www.w3.org/1999/xlink" version="1.1" viewBox="0 0 200 200" width="200pt" height="200pt" xmlns:dc="http://purl.org/dc/elements/1.1/"><metadata> Produced by OmniGraffle 6.6.2 <dc:date>2017-07-17 03:03:39 +0000</dc:date></metadata><defs/><g stroke="none" stroke-opacity="1" stroke-dasharray="none" fill="#555" fill-opacity="1"><title>Canvas 3</title><g><title>Layer 1</title><path d="M 34.411777 76.111047 C 29.656146 77.058877 25.180224 78.242753 21.123327 79.662674 C -3.2808693 88.2041 -3.2808693 102.052474 21.123327 110.5939 C 45.527398 119.13537 85.094183 119.13537 109.498253 110.5939 C 114.02357 109.010046 117.709746 107.243715 120.556786 105.36258 C 96.41718 113.59146 58.31634 114.08945 34.489928 106.36371 C 10.164253 98.476165 9.9290886 85.00362 33.964674 76.27193 C 34.113134 76.217995 34.262172 76.16437 34.411782 76.11105 Z" fill="#555"/><path d="M 108 76.111047 L 183 78.629994 L 108 81.14894 Z" fill="#ccc"/><path d="M 118.125 84.469236 L 193.125 86.988183 L 118.125 89.50713 Z" fill="#ccc"/><path d="M 125 92.827424 L 200 95.34637 L 125 97.86532 Z" fill="#ccc"/></g></g></svg>
