<svg xmlns="http://www.w3.org/2000/svg" width="200" height="200" viewBox="0 0 160 160" enable-background="new 0 0 160 160"><switch><g><path d="m158.6 123.7c-.9 1-2.3 2.4-4.1 4.1-1.8 1.7-4 3.7-6.7 5.8-1.3 1-2.8 2.1-4.3 3.2-1.6 1.1-3.2 2.1-5 3.1-1.8 1-3.6 2-5.6 2.8-2 .9-4.1 1.7-6.2 2.3-4.3 1.3-9 2-13.8 1.8-4.8-.1-9.7-1.1-14.5-2.8-2.4-.8-4.8-1.9-7.1-3.1l-.9-.4-.9-.5c-.6-.3-1.2-.6-1.7-1l-1.7-1-1.6-1c-1.1-.7-2.4-1.6-3.5-2.3-.6-.4-1.2-.8-1.8-1.2-.6-.4-1.2-.8-1.9-1.2-.6-.4-1.3-.8-1.9-1.2-.6-.4-1.3-.8-1.9-1.1-.6-.4-1.3-.7-1.9-1.1-.7-.3-1.3-.7-2-1-5.2-2.7-10.7-4.9-16.2-6.4-5.5-1.5-11.1-2.3-16.3-2.2-2.6 0-5.2.3-7.7.7-2.4.4-4.8 1-6.9 1.8-4.3 1.5-8 3.6-10.9 5.7-2.9 2.2-5.2 4.4-6.9 6.3-.8 1-1.5 1.9-2.1 2.7-.6.8-1 1.5-1.4 2.1-.4.6-.6 1-.8 1.4-.2.3-.2.5-.2.5s.5-.5 1.5-1.5c1-.9 2.5-2.2 4.4-3.6 2-1.4 4.5-3 7.5-4.4 1.5-.7 3.1-1.4 4.9-1.9 1.8-.6 3.6-1.1 5.6-1.4 2-.4 4-.6 6.2-.7 2.1-.1 4.3-.1 6.6.2 4.5.4 9.2 1.5 13.9 3.2 4.7 1.7 9.4 3.9 14.1 6.5 2.3 1.3 4.6 2.7 6.9 4.2l1.7 1.1 1.7 1.2c1.3.9 2.3 1.6 3.6 2.4l2 1.2c.7.4 1.3.8 2 1.1.7.4 1.3.7 2 1.1l1 .5 1 .5c2.7 1.3 5.6 2.5 8.5 3.4 5.8 1.8 12 2.7 17.8 2.4 5.9-.3 11.5-1.6 16.4-3.7 2.4-1 4.7-2.2 6.8-3.5 2.1-1.3 4-2.6 5.8-4 3.5-2.8 6.4-5.7 8.7-8.4 2.3-2.7 4.1-5.3 5.5-7.4 1.4-2.1 2.3-3.9 2.9-5.1.3-.6.5-1.1.7-1.4.1-.3.2-.5.2-.5s-.6.7-1.5 1.7" fill="#ccc"/><path d="m68.6 119.8c.7.3 1.4.7 2.1 1.1.7.4 1.4.7 2 1.1 1.4.7 2.7 1.5 4 2.3.7.4 1.3.8 2 1.2.7.4 1.3.8 1.9 1.3 1 .7 2.4 1.6 3.4 2.3.5.3 1 .6 1.4.9l1.6.9c.5.3 1.1.6 1.6.9l.8.4.8.4c.5.3 1.1.6 1.6.8.5.2 1 .5 1.6.8.5.2 1.1.5 1.6.7.5.2 1.1.4 1.6.6 4.2 1.6 8.4 2.6 12.6 3 4.2.4 8.3.1 12.3-.7.5-.1 1.1-.2 1.6-.4 2.3.6 4.7-.6 6.9-1.5 4.4-1.9 9.9-4 3.4-15.4-8-14-10.9-12-13.4-13.5l-33.2-74.8c.6-2.8 4-3.6-1-19-4-12.4-9.4-9.7-13.7-7.8-4.4 1.9-9.9 4-3.4 15.4 8.2 14.3 10.9 12 13.5 13.6l2.4 5.4c-5.7 3.4-23.9 15.3-26.9 31-.7 3.2-.6 6.3 0 9.2-5.1 4.1-9.3 9.9-12.2 14.5-1.8 3-5.8 9.9-7.9 17.2 4.5 0 9.1.6 13.6 1.7 5.9 1.5 11.8 3.7 17.4 6.4m-1.4-47.1c1.9-10.1 14.4-19.7 21.3-23.9l21.2 47.9c-2.6.5-7.3 1.3-12.9 1-10.7-.5-19.2-4.4-25.3-11.6-3.7-4.4-5.1-8.8-4.3-13.4m.6 36.5c3-5 5.5-7.5 6.4-8.2 6.5 3.9 14.1 6.1 22.5 6.5.9 0 1.7.1 2.5.1 6.9 0 12.4-1.2 14.5-1.7l1.5 3.3c-.5 3-4.1 3.5 1 19.1.4 1.1.7 2 1.1 2.9-7.9-4.6-25-13-51.6-17.5-.1 0-.1 0-.2 0 .6-1.6 1.4-3 2.3-4.5" fill="#555"/><circle cx="82.9" cy="77.8" r="10.5" fill="#555"/></g></switch></svg>